<svg version="1.1" id="Layer_1" xmlns="http://www.w3.org/2000/svg" xmlns:xlink="http://www.w3.org/1999/xlink" x="0px" y="0px"
	 width="100%" viewBox="0 0 484 484" enable-background="new 0 0 484 484" xml:space="preserve">
<path fill="#010100" opacity="1.000000" stroke="none" 
	d="
M1.000000,189.000000 
	C1.000000,126.016121 1.000000,63.532246 1.000000,1.024185 
	C162.275589,1.024185 323.551178,1.024185 484.913391,1.024185 
	C484.913391,162.233932 484.913391,323.467926 484.913391,484.850952 
	C323.666779,484.850952 162.333405,484.850952 1.000000,484.850952 
	C1.000000,386.448700 1.000000,287.974365 1.000000,189.000000 
M57.693546,187.419846 
	C55.998543,186.107315 54.401066,184.007965 52.571495,183.781189 
	C51.496357,183.647903 50.052246,186.491501 48.754978,188.808136 
	C50.195927,190.073547 51.992363,192.606476 52.999210,192.324081 
	C54.757374,191.830963 56.029770,189.605850 57.693546,187.419846 
M402.804504,237.820236 
	C404.563629,239.074402 406.322754,240.328552 408.081879,241.582718 
	C409.081177,240.010544 410.080475,238.438370 411.367950,236.274841 
	C409.910461,235.044647 408.189331,232.619507 407.058228,232.869003 
	C405.429230,233.228348 404.229126,235.531921 402.804504,237.820236 
M226.726151,60.959072 
	C227.476349,60.675144 228.435989,60.591537 228.936203,60.068523 
	C230.266327,58.677811 232.561478,56.863026 232.317123,55.651779 
	C232.006104,54.110077 229.724915,52.711246 228.001404,51.806347 
	C226.997009,51.279022 225.422440,51.837738 223.421921,51.444519 
	C219.639954,51.684200 215.858002,51.923882 211.228638,52.052177 
	C209.820282,52.199673 208.411942,52.347172 206.243958,52.313255 
	C204.528076,52.613686 202.812195,52.914116 200.386444,53.178726 
	C199.926849,53.284927 199.467239,53.391132 198.333252,53.358158 
	C197.253815,53.643658 196.174362,53.929161 194.386871,54.170628 
	C193.928482,54.277954 193.470108,54.385281 192.393051,54.363461 
	C191.618225,54.628120 190.843414,54.892776 189.357391,55.165180 
	C188.909637,55.313000 188.461868,55.460819 187.488876,55.507435 
	C187.014313,55.723179 186.539749,55.938923 185.355072,56.165184 
	C184.908020,56.312996 184.460968,56.460812 183.489426,56.507488 
	C183.013748,56.720886 182.538071,56.934284 181.349854,57.154583 
	C180.901382,57.303097 180.452896,57.451614 179.343674,57.526688 
	C177.911392,58.053982 176.479111,58.581276 174.328796,59.158516 
	C173.885178,59.333668 173.441559,59.508820 172.280975,59.634922 
	C168.645279,61.024757 165.009567,62.414597 160.746674,63.754711 
	C160.166611,63.982388 159.586563,64.210068 158.393738,64.456963 
	C157.716690,64.898758 157.039658,65.340553 155.737000,65.756905 
	C155.160385,65.986687 154.583755,66.216476 153.402008,66.466690 
	C152.741211,66.916389 152.080414,67.366089 150.741135,67.863533 
	C147.759628,69.370590 144.778137,70.877640 141.071655,72.559685 
	C128.021408,78.869278 116.066353,86.780968 105.007812,97.057053 
	C104.009026,98.047394 103.010231,99.037735 101.372292,100.217720 
	C99.196167,102.456940 97.020035,104.696152 94.435463,107.120392 
	C94.180229,107.301880 94.013924,107.544365 93.340050,108.077560 
	C92.549438,109.046951 91.758820,110.016342 90.386200,111.311951 
	C82.710983,121.909302 75.035767,132.506653 67.103935,143.826920 
	C68.316605,145.684601 69.186195,148.668457 70.813728,149.164276 
	C74.148354,150.180130 75.602005,147.225876 77.056343,144.020401 
	C85.416565,130.367188 95.608330,118.194893 107.609055,106.805054 
	C108.493744,105.906189 109.378441,105.007332 110.850304,103.877022 
	C112.238007,102.592690 113.625717,101.308357 115.667603,99.836678 
	C126.460670,90.700836 138.669479,83.774117 151.785080,77.042374 
	C153.521591,76.201920 155.258087,75.361458 157.602341,74.506660 
	C158.275528,74.073479 158.948730,73.640305 160.254150,73.221985 
	C160.834290,72.985397 161.414429,72.748817 162.602203,72.500259 
	C163.278473,72.071350 163.954742,71.642441 165.334946,71.242836 
	C166.887299,70.697800 168.439636,70.152756 170.661926,69.605957 
	C172.092590,69.035034 173.523254,68.464119 175.674072,67.838493 
	C176.116928,67.656998 176.559769,67.475502 177.655029,67.376526 
	C179.087784,66.881371 180.520538,66.386208 182.658081,65.876587 
	C183.100845,65.726952 183.543625,65.577309 184.513748,65.521912 
	C184.996262,65.317039 185.478790,65.112160 186.660889,64.897362 
	C187.102448,64.754799 187.544006,64.612236 188.517502,64.559784 
	C189.003265,64.352898 189.489014,64.146004 190.670059,63.937515 
	C191.111145,63.802479 191.552231,63.667446 192.669724,63.646805 
	C193.754822,63.373535 194.839905,63.100266 196.629669,62.859756 
	C197.084457,62.748783 197.539246,62.637806 198.669479,62.671280 
	C199.760345,62.403477 200.851227,62.135674 202.719070,61.931953 
	C203.478699,61.780148 204.238342,61.628342 205.716003,61.653725 
	C207.127518,61.398788 208.539017,61.143852 210.767975,60.983437 
	C211.845474,60.819370 212.922989,60.655300 214.906586,60.665569 
	C218.609818,60.680458 222.313065,60.695347 226.726151,60.959072 
M313.953217,79.814743 
	C315.182770,81.702599 316.412323,83.590454 318.012573,86.014229 
	C320.686249,87.600662 323.359955,89.187088 326.287109,91.039009 
	C326.287109,91.039009 326.639160,91.142906 326.950470,91.662064 
	C327.637512,92.035271 328.324554,92.408485 329.264221,93.047401 
	C329.264221,93.047401 329.615265,93.153313 329.927124,93.711334 
	C330.958344,94.384933 331.989532,95.058525 333.366821,96.183418 
	C333.841248,96.484718 334.315674,96.786011 335.065582,97.619774 
	C335.728027,98.026680 336.390472,98.433594 337.386627,99.340240 
	C338.193939,99.920197 339.001251,100.500153 340.068878,101.624039 
	C340.722168,102.055084 341.375427,102.486122 342.401337,103.476501 
	C348.279694,109.264053 354.158051,115.051605 360.302399,121.469810 
	C366.414948,129.880081 372.527527,138.290359 378.710358,147.198257 
	C378.911285,147.461288 379.112244,147.724335 379.383759,148.589417 
	C379.866150,149.227783 380.348541,149.866150 380.942139,151.173691 
	C386.263336,164.455948 391.584503,177.738205 396.962036,191.704239 
	C398.677551,192.819275 400.578827,195.000519 402.055267,194.743286 
	C403.473083,194.496246 404.450653,191.722595 405.776550,189.279068 
	C402.055145,179.440109 398.333710,169.601135 394.405273,159.436874 
	C394.340790,159.170700 394.222687,158.930771 393.870239,158.054230 
	C391.375427,152.985184 388.880646,147.916138 386.236267,142.133133 
	C379.874115,133.397736 373.511932,124.662338 366.886414,115.303490 
	C363.906860,112.208237 360.927277,109.112984 357.743011,105.398575 
	C356.150055,103.966202 354.557129,102.533829 352.643921,100.545731 
	C351.200592,99.320190 349.757233,98.094643 348.022858,96.296074 
	C346.997559,95.580902 345.972290,94.865723 344.614502,93.644836 
	C343.792847,93.076035 342.971222,92.507233 341.885895,91.410606 
	C341.234955,91.008858 340.583984,90.607101 339.633972,89.743820 
	C339.172577,89.461792 338.711151,89.179756 337.974030,88.362015 
	C337.313263,87.947227 336.652466,87.532440 335.797180,86.878914 
	C335.797180,86.878914 335.498871,86.802391 335.132141,86.214661 
	C330.587769,83.150200 326.166321,79.876793 321.451233,77.102425 
	C318.775177,75.527809 315.669312,74.950142 313.953217,79.814743 
M62.366497,297.605896 
	C62.117146,297.079498 61.867794,296.553070 61.585091,295.285004 
	C60.049938,290.368652 58.826405,285.318970 56.810528,280.608337 
	C56.105419,278.960693 53.434872,277.241394 51.689346,277.269348 
	C50.506016,277.288330 49.370586,280.297150 48.095558,282.709076 
	C48.530506,284.130249 48.965454,285.551392 49.398556,287.731934 
	C50.823437,291.746582 52.248322,295.761261 53.662060,300.369568 
	C53.902428,300.904938 54.142796,301.440277 54.407463,302.608063 
	C54.796188,303.345978 55.184917,304.083893 55.634159,305.510803 
	C59.044071,312.455261 62.453979,319.399750 65.887932,326.729004 
	C65.887932,326.729004 66.176315,326.984894 66.256294,327.643738 
	C67.121696,328.904846 67.987106,330.165985 68.969902,332.086487 
	C81.897049,353.013855 98.184166,370.851318 118.075417,385.350525 
	C145.626144,405.432922 176.504333,417.166504 210.377060,419.737946 
	C224.471878,420.807922 238.805206,418.735992 253.885284,418.214569 
	C258.575073,417.377869 263.264862,416.541138 268.717072,415.593811 
	C270.021027,415.389282 271.703735,415.621246 272.548859,414.887939 
	C274.228668,413.430298 276.519196,411.498810 276.618073,409.658875 
	C276.788025,406.497925 273.945770,405.281372 270.985535,405.799072 
	C268.307953,406.267334 265.719818,407.247498 262.268585,407.991974 
	C257.833710,408.712189 253.398865,409.432404 248.561203,409.825165 
	C247.732666,409.969971 246.904144,410.114777 245.396576,410.132019 
	C244.950317,410.227448 244.504044,410.322845 243.178604,410.209686 
	C239.811050,410.558746 236.443512,410.907806 232.276978,411.102264 
	C231.203812,411.208038 230.130646,411.313843 228.210678,411.165466 
	C226.455200,411.241425 224.699722,411.317383 222.160629,411.182953 
	C221.085464,411.213409 220.010284,411.243896 218.201889,410.967590 
	C215.113754,410.793732 212.025620,410.619904 208.287018,410.203094 
	C207.827896,410.221771 207.368774,410.240448 206.214905,409.923920 
	C171.280518,405.417816 139.929855,392.388000 113.253433,369.310577 
	C103.362411,360.754028 94.917107,350.526276 85.687683,340.472931 
	C85.159302,339.891754 84.630928,339.310547 83.938019,338.083069 
	C82.252975,335.735779 80.567940,333.388489 78.781853,330.404480 
	C78.246086,329.747070 77.710320,329.089661 77.092186,327.858795 
	C76.641136,327.245361 76.190086,326.631958 75.671509,325.396423 
	C75.170898,324.745148 74.670288,324.093872 74.139336,322.964386 
	C73.851952,322.600800 73.564575,322.237213 73.177734,321.155457 
	C70.931068,316.780914 68.684395,312.406372 66.423531,307.419464 
	C66.037193,306.716431 65.650864,306.013367 65.207466,304.652039 
	C64.673553,303.443451 64.139633,302.234863 63.585529,300.395264 
	C63.192280,299.660736 62.799030,298.926239 62.366497,297.605896 
M261.736542,312.820709 
	C265.420624,309.014435 269.104706,305.208160 273.373657,301.159851 
	C276.253387,298.119568 279.133148,295.079315 282.640350,291.798126 
	C287.426788,286.865021 292.213257,281.931946 297.624115,276.757904 
	C301.410614,272.826630 305.197144,268.895386 309.608887,264.723572 
	C314.710083,259.472076 319.811249,254.220581 325.538544,248.720123 
	C328.675842,245.434128 331.813141,242.148148 335.564087,238.618332 
	C339.811676,233.788895 344.059265,228.959457 348.846863,223.725998 
	C349.958801,220.898743 351.070740,218.071472 352.537140,214.817123 
	C352.740692,214.171783 352.944244,213.526428 353.501587,212.288849 
	C353.587402,211.839447 353.673248,211.390045 354.117523,210.518570 
	C354.125366,209.982895 354.133209,209.447235 354.404663,208.049561 
	C354.245361,204.035522 354.086090,200.021500 354.006989,195.239197 
	C351.815796,190.097443 349.624573,184.955688 347.235321,179.137375 
	C346.133118,177.686813 345.147858,176.127106 343.911163,174.802078 
	C325.638397,155.223953 295.465637,158.132019 277.657288,181.418732 
	C273.145020,186.056885 268.632782,190.695023 263.531616,195.594040 
	C259.064301,200.160461 254.597015,204.726883 249.533447,209.552673 
	C246.060730,213.140488 242.588028,216.728302 238.519089,220.566391 
	C233.967804,225.281433 229.416534,229.996490 224.235321,234.996613 
	C222.831268,235.778854 221.427216,236.561096 219.281998,237.408890 
	C216.207932,238.321899 213.133865,239.234909 209.242828,240.009628 
	C208.142761,240.060059 207.042709,240.110489 205.316772,239.803162 
	C203.871902,239.638901 202.427032,239.474655 200.421936,238.938446 
	C199.146683,238.555374 197.871429,238.172318 196.180374,237.239655 
	C194.780426,236.505692 193.380478,235.771744 191.997635,234.996140 
	C191.997635,234.996140 191.961334,235.023148 191.677170,234.422073 
	C186.518417,229.597443 181.317734,224.798477 181.160263,216.122696 
	C181.123749,213.756180 181.087234,211.389648 181.433319,208.311829 
	C181.330185,205.226303 181.227051,202.140762 181.324753,198.551178 
	C181.161469,198.054657 180.998169,197.558151 180.878052,196.408981 
	C180.613190,195.595108 180.348328,194.781250 180.105438,193.204651 
	C177.416962,188.131165 174.728485,183.057678 171.806595,177.353195 
	C163.262909,167.271805 152.220184,162.597260 139.190735,163.162750 
	C126.230476,163.725220 115.467751,168.910126 107.545372,180.452042 
	C105.507011,184.982437 103.468651,189.512833 101.113945,194.729767 
	C101.048859,195.476532 100.983772,196.223282 100.587555,197.411453 
	C100.556885,197.947693 100.526207,198.483948 100.209618,199.858963 
	C100.318817,202.948715 100.428009,206.038467 100.479546,209.934677 
	C101.235313,212.642975 101.991081,215.351273 102.791283,218.805466 
	C105.486084,226.703110 110.729240,232.677490 117.421471,238.388412 
	C121.682922,242.563553 125.944374,246.738693 130.471741,251.512390 
	C134.452225,255.385147 138.432709,259.257904 142.733704,263.764801 
	C146.549271,267.485870 150.364853,271.206970 154.435349,275.534058 
	C159.526276,280.527832 164.617218,285.521637 169.984863,291.096741 
	C173.687805,294.717743 177.390762,298.338715 181.336823,302.576874 
	C184.264664,305.369537 187.192520,308.162231 190.354156,311.574463 
	C191.978775,313.244843 193.588058,314.930511 195.230377,316.583313 
	C216.108810,337.595093 242.575089,336.170959 261.736542,312.820709 
M219.271439,401.633606 
	C215.449661,401.376892 211.620575,401.197235 207.808762,400.835449 
	C205.403534,400.607178 202.297043,399.195435 201.991669,402.950439 
	C201.904892,404.017548 205.014252,405.554260 206.853943,406.490265 
	C207.969330,407.057739 209.468689,407.072906 210.782150,407.017700 
	C225.885651,406.382751 241.258423,407.279877 256.045441,404.756531 
	C381.774689,383.301483 440.738647,237.927933 365.951569,134.632889 
	C365.269226,133.690445 364.728271,132.387436 363.794800,131.950775 
	C362.643860,131.412430 360.970367,131.186874 359.877380,131.654724 
	C359.296387,131.903412 359.141418,133.973846 359.388367,135.090546 
	C359.620758,136.141373 360.734894,136.964600 361.288025,137.982040 
	C368.346710,150.966232 376.851196,163.391769 382.176239,177.055206 
	C425.124451,287.255554 338.475128,407.111420 219.271439,401.633606 
M62.961609,183.295532 
	C48.221283,231.021500 53.284744,276.737793 77.133759,320.439697 
	C80.472969,326.558624 84.570549,332.293274 88.685104,337.937500 
	C89.641006,339.248810 92.104736,339.460938 93.874664,340.178833 
	C93.635796,338.289734 93.622902,336.332245 93.078934,334.535522 
	C92.713829,333.329590 91.570244,332.369171 90.819038,331.268860 
	C60.785168,287.276672 53.101753,239.560638 67.418686,188.366837 
	C72.767258,169.241653 81.984360,151.935654 93.827682,135.987717 
	C94.793510,134.687149 94.322098,132.319229 94.518517,130.447281 
	C92.752258,131.207581 90.965881,131.926071 89.234955,132.759720 
	C88.838837,132.950485 88.639473,133.542267 88.340042,133.942368 
	C77.261719,148.745819 68.892288,164.951553 62.961609,183.295532 
M160.428268,78.065987 
	C160.449997,82.591507 161.325180,83.106194 166.227966,81.215187 
	C192.200363,71.197617 218.981735,67.637489 246.676971,70.813194 
	C248.390198,71.009628 250.285522,69.618210 252.096115,68.965569 
	C250.505463,67.697113 248.937241,65.361984 247.320633,65.327995 
	C233.704926,65.041740 219.991074,64.202141 206.481781,65.439590 
	C190.761810,66.879547 175.259460,70.400703 160.428268,78.065987 
M51.100151,233.924347 
	C48.870277,229.734818 45.378075,228.629593 43.262669,231.685730 
	C42.395466,232.938583 42.045807,235.344254 42.680191,236.618317 
	C43.313736,237.890701 45.934505,239.440445 46.862591,239.026550 
	C48.609009,238.247696 49.764507,236.143845 51.100151,233.924347 
M318.234100,388.547699 
	C313.534180,387.914124 310.487915,390.056702 311.651337,393.451263 
	C312.140625,394.878906 313.848877,396.442383 315.294312,396.815491 
	C316.474640,397.120178 319.088867,395.980713 319.301300,395.069702 
	C319.745422,393.165405 319.023834,390.989227 318.234100,388.547699 
M401.224731,279.332977 
	C399.583069,280.445129 397.499908,281.261902 396.478394,282.788910 
	C395.934204,283.602356 396.978516,286.749451 397.736969,286.919373 
	C399.812683,287.384491 403.060242,287.690552 404.141327,286.505951 
	C406.672119,283.732880 405.228058,281.039795 401.224731,279.332977 
M357.175232,364.896759 
	C355.947968,363.295258 354.720673,361.693726 353.493378,360.092224 
	C351.957520,361.386444 349.965790,362.439697 349.095764,364.085846 
	C348.713348,364.809326 350.303314,367.379364 351.546692,367.986084 
	C353.930084,369.149109 356.465057,368.990936 357.175232,364.896759 
M383.852417,331.421967 
	C384.612762,329.524597 385.789948,327.654388 385.916351,325.715668 
	C385.963135,324.998535 383.338989,323.267151 382.288147,323.513489 
	C380.670929,323.892609 378.443054,325.350555 378.094513,326.753387 
	C377.126556,330.649109 380.317841,331.142242 383.852417,331.421967 
M273.440643,59.915512 
	C272.164246,60.885380 270.887848,61.855251 269.611481,62.825123 
	C269.645508,63.449898 269.679565,64.074677 269.713623,64.699448 
	C272.082458,65.340332 274.439941,66.328751 276.827240,66.407028 
	C277.529205,66.430046 278.315735,63.874138 279.063507,62.500145 
	C277.388397,61.639416 275.713318,60.778690 273.440643,59.915512 
M289.498016,79.076881 
	C290.225922,80.334709 290.953857,81.592529 291.681763,82.850357 
	C292.721069,82.218376 294.141815,81.805107 294.671661,80.881004 
	C295.053619,80.214821 294.356842,78.030060 293.954376,77.978416 
	C292.599487,77.804527 291.161102,78.281647 289.498016,79.076881 
z"/>
<path fill="#72C24F" opacity="1.000000" stroke="none" 
	d="
M219.734283,401.658081 
	C338.475128,407.111420 425.124451,287.255554 382.176239,177.055206 
	C376.851196,163.391769 368.346710,150.966232 361.288025,137.982040 
	C360.734894,136.964600 359.620758,136.141373 359.388367,135.090546 
	C359.141418,133.973846 359.296387,131.903412 359.877380,131.654724 
	C360.970367,131.186874 362.643860,131.412430 363.794800,131.950775 
	C364.728271,132.387436 365.269226,133.690445 365.951569,134.632889 
	C440.738647,237.927933 381.774689,383.301483 256.045441,404.756531 
	C241.258423,407.279877 225.885651,406.382751 210.782150,407.017700 
	C209.468689,407.072906 207.969330,407.057739 206.853943,406.490265 
	C205.014252,405.554260 201.904892,404.017548 201.991669,402.950439 
	C202.297043,399.195435 205.403534,400.607178 207.808762,400.835449 
	C211.620575,401.197235 215.449661,401.376892 219.734283,401.658081 
z"/>
<path fill="#80C23B" opacity="1.000000" stroke="none" 
	d="
M142.413208,263.130646 
	C138.432709,259.257904 134.452225,255.385147 130.543488,250.919189 
	C132.794556,249.550949 134.972519,248.103363 137.153381,248.098938 
	C197.454498,247.976562 257.755920,247.990219 318.057251,248.041656 
	C320.342590,248.043610 322.627380,248.646332 324.912445,248.969086 
	C319.811249,254.220581 314.710083,259.472076 309.087646,264.539734 
	C306.002411,263.570312 303.440430,262.106842 300.874237,262.099518 
	C253.006516,261.962646 205.138260,261.965820 157.270309,262.048309 
	C152.317337,262.056854 147.365540,262.753357 142.413208,263.130646 
z"/>
<path fill="#77BC37" opacity="1.000000" stroke="none" 
	d="
M325.225494,248.844604 
	C322.627380,248.646332 320.342590,248.043610 318.057251,248.041656 
	C257.755920,247.990219 197.454498,247.976562 137.153381,248.098938 
	C134.972519,248.103363 132.794556,249.550949 130.410522,250.619904 
	C125.944374,246.738693 121.682922,242.563553 117.477615,237.799652 
	C119.948273,236.472198 122.358452,235.108963 124.777985,235.092178 
	C147.171509,234.936813 169.566650,235.013718 191.961334,235.023148 
	C191.961334,235.023148 191.997635,234.996140 192.109497,235.350098 
	C193.679626,236.399109 195.137909,237.094177 196.596176,237.789246 
	C197.871429,238.172318 199.146683,238.555374 200.851196,239.403473 
	C202.834503,239.965958 204.388580,240.063446 205.942642,240.160934 
	C207.042709,240.110489 208.142761,240.060059 209.950668,240.259766 
	C213.780045,239.454391 216.901596,238.398865 220.023148,237.343338 
	C221.427216,236.561096 222.831268,235.778854 224.891922,235.112381 
	C227.830322,235.485016 230.111786,235.962143 232.393967,235.965622 
	C264.631348,236.014603 296.868866,235.981232 329.106232,236.037888 
	C331.376343,236.041870 334.423248,235.007278 334.950439,238.862167 
	C331.813141,242.148148 328.675842,245.434128 325.225494,248.844604 
z"/>
<path fill="#89CA3E" opacity="1.000000" stroke="none" 
	d="
M142.573456,263.447723 
	C147.365540,262.753357 152.317337,262.056854 157.270309,262.048309 
	C205.138260,261.965820 253.006516,261.962646 300.874237,262.099518 
	C303.440430,262.106842 306.002411,263.570312 308.775024,264.660034 
	C305.197144,268.895386 301.410614,272.826630 297.242798,276.493103 
	C294.720154,275.485718 292.580750,274.101501 290.437256,274.095215 
	C247.305389,273.968628 204.173035,273.986389 161.040863,274.040009 
	C158.753677,274.042847 156.467224,274.618866 154.180420,274.928040 
	C150.364853,271.206970 146.549271,267.485870 142.573456,263.447723 
z"/>
<path fill="#91D042" opacity="1.000000" stroke="none" 
	d="
M154.307892,275.231049 
	C156.467224,274.618866 158.753677,274.042847 161.040863,274.040009 
	C204.173035,273.986389 247.305389,273.968628 290.437256,274.095215 
	C292.580750,274.101501 294.720154,275.485718 296.930603,276.613556 
	C292.213257,281.931946 287.426788,286.865021 282.299561,291.514954 
	C281.823914,287.749603 279.258209,288.009735 276.924286,288.009033 
	C243.204742,287.998688 209.485016,287.958527 175.766144,288.109222 
	C173.743271,288.118256 171.727325,289.677521 169.708145,290.515411 
	C164.617218,285.521637 159.526276,280.527832 154.307892,275.231049 
z"/>
<path fill="#6EB533" opacity="1.000000" stroke="none" 
	d="
M335.257263,238.740250 
	C334.423248,235.007278 331.376343,236.041870 329.106232,236.037888 
	C296.868866,235.981232 264.631348,236.014603 232.393967,235.965622 
	C230.111786,235.962143 227.830322,235.485016 225.206879,234.969849 
	C229.416534,229.996490 233.967804,225.281433 239.070984,220.709381 
	C241.856552,221.234863 244.089447,221.945297 246.323990,221.950485 
	C277.692139,222.023346 309.060791,221.949326 340.428436,222.092484 
	C343.057617,222.104462 345.680847,223.420059 348.306824,224.130005 
	C344.059265,228.959457 339.811676,233.788895 335.257263,238.740250 
z"/>
<path fill="#73C34F" opacity="1.000000" stroke="none" 
	d="
M63.072083,182.914948 
	C68.892288,164.951553 77.261719,148.745819 88.340042,133.942368 
	C88.639473,133.542267 88.838837,132.950485 89.234955,132.759720 
	C90.965881,131.926071 92.752258,131.207581 94.518517,130.447281 
	C94.322098,132.319229 94.793510,134.687149 93.827682,135.987717 
	C81.984360,151.935654 72.767258,169.241653 67.418686,188.366837 
	C53.101753,239.560638 60.785168,287.276672 90.819038,331.268860 
	C91.570244,332.369171 92.713829,333.329590 93.078934,334.535522 
	C93.622902,336.332245 93.635796,338.289734 93.874664,340.178833 
	C92.104736,339.460938 89.641006,339.248810 88.685104,337.937500 
	C84.570549,332.293274 80.472969,326.558624 77.133759,320.439697 
	C53.284744,276.737793 48.221283,231.021500 63.072083,182.914948 
z"/>
<path fill="#6BB032" opacity="1.000000" stroke="none" 
	d="
M191.819244,234.722610 
	C169.566650,235.013718 147.171509,234.936813 124.777985,235.092178 
	C122.358452,235.108963 119.948273,236.472198 117.325577,237.499313 
	C110.729240,232.677490 105.486084,226.703110 103.206299,218.390244 
	C106.923836,217.650223 110.225365,217.056259 113.529037,217.044067 
	C136.025558,216.961090 158.522552,217.000534 181.019394,217.000473 
	C181.317734,224.798477 186.518417,229.597443 191.819244,234.722610 
z"/>
<path fill="#5DA82C" opacity="1.000000" stroke="none" 
	d="
M250.129700,209.293304 
	C254.597015,204.726883 259.064301,200.160461 264.042542,195.702972 
	C267.463562,195.874725 270.373688,195.990372 273.283844,195.992142 
	C300.164825,196.008453 327.045807,196.005096 353.926788,196.007462 
	C354.086090,200.021500 354.245361,204.035522 354.097778,208.581818 
	C353.515656,209.411880 353.240387,209.709717 352.498657,210.005951 
	C318.919800,210.165558 285.807495,210.335846 252.694946,210.437515 
	C251.841034,210.440140 250.984833,209.691544 250.129700,209.293304 
z"/>
<path fill="#99CC44" opacity="1.000000" stroke="none" 
	d="
M75.739029,326.018524 
	C76.190086,326.631958 76.641136,327.245361 77.159760,328.483704 
	C77.779190,329.752808 78.331047,330.397003 78.882896,331.041229 
	C80.567940,333.388489 82.252975,335.735779 84.063683,338.713867 
	C84.730392,339.916687 85.271431,340.488678 85.812485,341.060699 
	C94.917107,350.526276 103.362411,360.754028 113.253433,369.310577 
	C139.929855,392.388000 171.280518,405.417816 206.236359,410.282898 
	C202.154205,410.247559 198.000519,410.133392 193.955750,409.410156 
	C177.122223,406.400299 161.179138,400.708435 145.952881,392.967804 
	C142.200089,391.059967 138.438385,389.765137 133.338394,392.755127 
	C135.870697,394.573547 137.651840,396.213135 139.728897,397.272552 
	C144.764908,399.841187 149.867584,402.306915 155.068787,404.519318 
	C182.837845,416.331238 211.716095,421.172455 241.840286,418.213501 
	C245.538498,417.850220 249.298630,418.117615 253.030075,418.092773 
	C238.805206,418.735992 224.471878,420.807922 210.377060,419.737946 
	C176.504333,417.166504 145.626144,405.432922 118.075417,385.350525 
	C98.184166,370.851318 81.897049,353.013855 68.896965,331.398560 
	C67.941460,329.468750 67.058884,328.226807 66.176315,326.984894 
	C66.176315,326.984894 65.887932,326.729004 66.007996,326.184875 
	C68.511101,324.385040 70.894142,323.129364 73.277191,321.873657 
	C73.564575,322.237213 73.851952,322.600800 74.172745,323.530823 
	C74.717117,324.737701 75.228073,325.378113 75.739029,326.018524 
z"/>
<path fill="#66AF30" opacity="1.000000" stroke="none" 
	d="
M249.831573,209.422989 
	C250.984833,209.691544 251.841034,210.440140 252.694946,210.437515 
	C285.807495,210.335846 318.919800,210.165558 352.605804,210.182907 
	C353.324402,210.602829 353.517609,210.795883 353.759094,210.940659 
	C353.673248,211.390045 353.587402,211.839447 353.081665,212.725281 
	C352.502014,213.855896 352.342346,214.550049 352.182678,215.244217 
	C351.070740,218.071472 349.958801,220.898743 348.576843,223.927994 
	C345.680847,223.420059 343.057617,222.104462 340.428436,222.092484 
	C309.060791,221.949326 277.692139,222.023346 246.323990,221.950485 
	C244.089447,221.945297 241.856552,221.234863 239.369110,220.584229 
	C242.588028,216.728302 246.060730,213.140488 249.831573,209.422989 
z"/>
<path fill="#53A028" opacity="1.000000" stroke="none" 
	d="
M353.966888,195.623322 
	C327.045807,196.005096 300.164825,196.008453 273.283844,195.992142 
	C270.373688,195.990372 267.463562,195.874725 264.336975,195.572540 
	C268.632782,190.695023 273.145020,186.056885 278.364197,181.232803 
	C283.202728,180.694870 287.332031,180.073654 291.466461,180.037109 
	C310.121307,179.872208 328.777588,179.872925 347.433350,179.813965 
	C349.624573,184.955688 351.815796,190.097443 353.966888,195.623322 
z"/>
<path fill="#5BA62B" opacity="1.000000" stroke="none" 
	d="
M100.537201,209.128235 
	C100.428009,206.038467 100.318817,202.948715 100.554161,199.340714 
	C100.905365,198.204987 100.912025,197.587524 100.918686,196.970047 
	C100.983772,196.223282 101.048859,195.476532 101.680023,194.379761 
	C128.191895,194.008972 154.137680,193.988174 180.083481,193.967377 
	C180.348328,194.781250 180.613190,195.595108 180.726212,196.889160 
	C180.757553,197.931305 180.940735,198.493271 181.123917,199.055237 
	C181.227051,202.140762 181.330185,205.226303 180.852173,208.510178 
	C178.302155,208.472183 176.333725,208.034744 174.364304,208.030334 
	C152.546448,207.981354 130.728271,207.959229 108.910675,208.049484 
	C106.118073,208.061020 103.328293,208.751999 100.537201,209.128235 
z"/>
<path fill="#9AD746" opacity="1.000000" stroke="none" 
	d="
M169.846497,290.806091 
	C171.727325,289.677521 173.743271,288.118256 175.766144,288.109222 
	C209.485016,287.958527 243.204742,287.998688 276.924286,288.009033 
	C279.258209,288.009735 281.823914,287.749603 281.985840,291.635437 
	C279.133148,295.079315 276.253387,298.119568 272.691895,301.063782 
	C269.832855,300.313904 267.658417,299.102203 265.477936,299.091187 
	C239.257202,298.958954 213.035156,298.942841 186.815140,299.130981 
	C184.901321,299.144745 183.000549,300.974365 181.093719,301.959717 
	C177.390762,298.338715 173.687805,294.717743 169.846497,290.806091 
z"/>
<path fill="#519D27" opacity="1.000000" stroke="none" 
	d="
M180.094452,193.586014 
	C154.137680,193.988174 128.191895,194.008972 101.838196,194.036499 
	C103.468651,189.512833 105.507011,184.982437 108.178284,180.139496 
	C111.504494,179.216858 114.193382,178.101593 116.891777,178.078140 
	C135.273407,177.918350 153.657043,177.988342 172.040024,177.984177 
	C174.728485,183.057678 177.416962,188.131165 180.094452,193.586014 
z"/>
<path fill="#A9E24C" opacity="1.000000" stroke="none" 
	d="
M261.109711,313.043396 
	C242.575089,336.170959 216.108810,337.595093 195.230377,316.583313 
	C193.588058,314.930511 191.978775,313.244843 190.616241,311.113007 
	C191.845413,310.448273 192.812103,310.069580 193.779633,310.067505 
	C214.479126,310.023102 235.179398,309.947845 255.877029,310.142181 
	C257.630157,310.158630 259.365906,312.032440 261.109711,313.043396 
z"/>
<path fill="#B0E84F" opacity="1.000000" stroke="none" 
	d="
M253.457672,418.153687 
	C249.298630,418.117615 245.538498,417.850220 241.840286,418.213501 
	C211.716095,421.172455 182.837845,416.331238 155.068787,404.519318 
	C149.867584,402.306915 144.764908,399.841187 139.728897,397.272552 
	C137.651840,396.213135 135.870697,394.573547 133.338394,392.755127 
	C138.438385,389.765137 142.200089,391.059967 145.952881,392.967804 
	C161.179138,400.708435 177.122223,406.400299 193.955750,409.410156 
	C198.000519,410.133392 202.154205,410.247559 206.583725,410.450470 
	C207.368774,410.240448 207.827896,410.221771 208.815887,410.620300 
	C212.541550,411.116455 215.738342,411.195435 218.935120,411.274384 
	C220.010284,411.243896 221.085464,411.213409 222.721252,411.566956 
	C225.207077,411.773834 227.132278,411.596710 229.057480,411.419617 
	C230.130646,411.313843 231.203812,411.208038 233.017273,411.375061 
	C237.190964,411.238007 240.624359,410.828125 244.057770,410.418243 
	C244.504044,410.322845 244.950317,410.227448 245.947083,410.366852 
	C247.319733,410.451996 248.141876,410.302307 248.964005,410.152588 
	C253.398865,409.432404 257.833710,408.712189 263.044739,408.080750 
	C266.017517,409.647125 268.214172,411.124725 270.502136,412.663757 
	C269.318115,414.076996 268.636383,414.890717 267.954651,415.704407 
	C263.264862,416.541138 258.575073,417.377869 253.457672,418.153687 
z"/>
<path fill="#A2DE49" opacity="1.000000" stroke="none" 
	d="
M261.423126,312.932068 
	C259.365906,312.032440 257.630157,310.158630 255.877029,310.142181 
	C235.179398,309.947845 214.479126,310.023102 193.779633,310.067505 
	C192.812103,310.069580 191.845413,310.448273 190.499344,310.803223 
	C187.192520,308.162231 184.264664,305.369537 181.215271,302.268311 
	C183.000549,300.974365 184.901321,299.144745 186.815140,299.130981 
	C213.035156,298.942841 239.257202,298.958954 265.477936,299.091187 
	C267.658417,299.102203 269.832855,300.313904 272.399445,301.184814 
	C269.104706,305.208160 265.420624,309.014435 261.423126,312.932068 
z"/>
<path fill="#459122" opacity="1.000000" stroke="none" 
	d="
M347.334351,179.475677 
	C328.777588,179.872925 310.121307,179.872208 291.466461,180.037109 
	C287.332031,180.073654 283.202728,180.694870 278.663208,181.073898 
	C295.465637,158.132019 325.638397,155.223953 343.911163,174.802078 
	C345.147858,176.127106 346.133118,177.686813 347.334351,179.475677 
z"/>
<path fill="#64AD2F" opacity="1.000000" stroke="none" 
	d="
M100.508377,209.531464 
	C103.328293,208.751999 106.118073,208.061020 108.910675,208.049484 
	C130.728271,207.959229 152.546448,207.981354 174.364304,208.030334 
	C176.333725,208.034744 178.302155,208.472183 180.660889,208.865829 
	C181.087234,211.389648 181.123749,213.756180 181.089828,216.561584 
	C158.522552,217.000534 136.025558,216.961090 113.529037,217.044067 
	C110.225365,217.056259 106.923836,217.650223 103.184082,218.017303 
	C101.991081,215.351273 101.235313,212.642975 100.508377,209.531464 
z"/>
<path fill="#469322" opacity="1.000000" stroke="none" 
	d="
M171.923309,177.668686 
	C153.657043,177.988342 135.273407,177.918350 116.891777,178.078140 
	C114.193382,178.101593 111.504494,179.216858 108.443764,179.927338 
	C115.467751,168.910126 126.230476,163.725220 139.190735,163.162750 
	C152.220184,162.597260 163.262909,167.271805 171.923309,177.668686 
z"/>
<path fill="#70BE4D" opacity="1.000000" stroke="none" 
	d="
M160.645905,77.770042 
	C175.259460,70.400703 190.761810,66.879547 206.481781,65.439590 
	C219.991074,64.202141 233.704926,65.041740 247.320633,65.327995 
	C248.937241,65.361984 250.505463,67.697113 252.096115,68.965561 
	C250.285522,69.618210 248.390198,71.009628 246.676971,70.813194 
	C218.981735,67.637489 192.200363,71.197617 166.227966,81.215187 
	C161.325180,83.106194 160.449997,82.591507 160.645905,77.770042 
z"/>
<path fill="#459122" opacity="1.000000" stroke="none" 
	d="
M184.013916,56.608627 
	C184.460968,56.460812 184.908020,56.312996 185.881058,56.276993 
	C186.942734,56.128742 187.478424,55.868687 188.014114,55.608635 
	C188.461868,55.460819 188.909637,55.313000 189.928696,55.310265 
	C191.337234,55.134438 192.174484,54.813526 193.011719,54.492611 
	C193.470108,54.385281 193.928482,54.277954 194.990570,54.346569 
	C196.732056,54.180786 197.869858,53.839062 199.007645,53.497337 
	C199.467239,53.391132 199.926849,53.284927 201.037231,53.361382 
	C203.459885,53.194244 205.231735,52.844456 207.003586,52.494667 
	C208.411942,52.347172 209.820282,52.199673 212.005157,52.295486 
	C216.594315,52.711788 220.406937,52.884781 224.201935,53.478161 
	C224.182159,55.574562 224.180023,57.250572 223.720337,58.944271 
	C220.175369,59.471718 217.087921,59.981472 214.000488,60.491230 
	C212.922989,60.655300 211.845474,60.819370 210.088211,60.760231 
	C207.938293,60.850197 206.468124,61.163368 204.997971,61.476540 
	C204.238342,61.628342 203.478699,61.780148 202.082123,61.734074 
	C200.294800,61.866405 199.144409,62.196613 197.994034,62.526825 
	C197.539246,62.637806 197.084457,62.748783 196.026978,62.683788 
	C194.280640,62.849354 193.136978,63.190884 191.993317,63.532417 
	C191.552231,63.667446 191.111145,63.802479 190.150787,63.808762 
	C189.082870,63.943230 188.534225,64.206451 187.985565,64.469666 
	C187.544006,64.612236 187.102448,64.754799 186.140305,64.777405 
	C185.075272,64.914185 184.530838,65.170929 183.986389,65.427673 
	C183.543625,65.577309 183.100845,65.726952 182.058777,65.746765 
	C179.973862,66.175957 178.488235,66.734985 177.002625,67.294006 
	C176.559769,67.475502 176.116928,67.656998 175.060562,67.728317 
	C172.962036,68.281334 171.477005,68.944519 169.991989,69.607712 
	C168.439636,70.152756 166.887299,70.697800 164.661133,71.231873 
	C163.323059,71.651352 162.658813,72.081795 161.994568,72.512238 
	C161.414429,72.748817 160.834290,72.985397 159.616455,73.220520 
	C158.317383,73.653030 157.655991,74.087013 156.994598,74.520996 
	C155.258087,75.361458 153.521591,76.201920 151.245071,76.798691 
	C149.147934,75.952896 147.553482,75.430702 146.044342,74.725845 
	C144.582794,74.043205 143.208984,73.172691 141.796646,72.384689 
	C144.778137,70.877640 147.759628,69.370590 151.400482,67.826759 
	C152.708923,67.342079 153.358032,66.894173 154.007141,66.446266 
	C154.583755,66.216476 155.160385,65.986687 156.375153,65.764801 
	C157.677704,65.327713 158.342102,64.882721 159.006500,64.437744 
	C159.586563,64.210068 160.166611,63.982388 161.480835,63.765762 
	C165.809326,62.412525 169.403625,61.048244 172.997940,59.683968 
	C173.441559,59.508820 173.885178,59.333668 174.936707,59.270725 
	C177.031204,58.788666 178.517822,58.194397 180.004425,57.600128 
	C180.452896,57.451614 180.901382,57.303097 181.876740,57.269196 
	C182.940384,57.125412 183.477158,56.867020 184.013916,56.608627 
z"/>
<path fill="#559D28" opacity="1.000000" stroke="none" 
	d="
M67.360550,143.104004 
	C75.035767,132.506653 82.710983,121.909302 91.007919,111.078018 
	C92.398605,109.845337 93.167572,108.846588 93.936539,107.847839 
	C94.013924,107.544365 94.180229,107.301880 94.986725,106.975922 
	C97.695808,104.563652 99.853622,102.295860 102.011429,100.028076 
	C103.010231,99.037735 104.009026,98.047394 105.748428,96.979431 
	C109.556870,97.324501 113.328873,95.824654 115.013428,100.024025 
	C113.625717,101.308357 112.238007,102.592690 110.212769,104.030365 
	C108.715965,105.119370 107.856689,106.055046 106.997421,106.990723 
	C95.608330,118.194893 85.416565,130.367188 76.416794,143.969574 
	C72.971687,143.647156 70.166122,143.375580 67.360550,143.104004 
z"/>
<path fill="#5DA82C" opacity="1.000000" stroke="none" 
	d="
M386.385864,142.847092 
	C388.880646,147.916138 391.375427,152.985184 394.013672,158.590485 
	C394.243286,159.385727 394.395020,159.597534 394.612305,159.762177 
	C398.333710,169.601135 402.055145,179.440109 405.293335,189.658127 
	C402.175323,190.364944 399.540497,190.692703 396.905701,191.020462 
	C391.584503,177.738205 386.263336,164.455948 380.868225,150.517914 
	C380.300568,149.237228 379.806885,148.612289 379.313171,147.987366 
	C379.112244,147.724335 378.911285,147.461288 378.828003,146.537994 
	C380.283417,142.063156 383.672150,143.283691 386.385864,142.847092 
z"/>
<path fill="#469322" opacity="1.000000" stroke="none" 
	d="
M115.340515,99.930351 
	C113.328873,95.824654 109.556870,97.324501 106.029999,96.864868 
	C116.066353,86.780968 128.021408,78.869278 141.434143,72.472191 
	C143.208984,73.172691 144.582794,74.043205 146.044342,74.725845 
	C147.553482,75.430702 149.147934,75.952896 150.888031,76.851547 
	C138.669479,83.774117 126.460670,90.700836 115.340515,99.930351 
z"/>
<path fill="#519D27" opacity="1.000000" stroke="none" 
	d="
M326.639160,91.142906 
	C326.639160,91.142906 326.287109,91.039009 326.180237,90.523819 
	C327.266693,89.012009 328.319031,87.546516 329.688293,87.134705 
	C331.495056,86.591309 333.550385,86.874519 335.498871,86.802391 
	C335.498871,86.802391 335.797180,86.878914 336.006775,87.285843 
	C336.894135,88.094421 337.571960,88.496078 338.249756,88.897736 
	C338.711151,89.179756 339.172577,89.461792 339.904205,90.249176 
	C340.832825,91.149162 341.491180,91.543800 342.149567,91.938431 
	C342.971222,92.507233 343.792847,93.076035 344.877197,94.219154 
	C346.197876,95.485352 347.255890,96.177231 348.313904,96.869102 
	C349.757233,98.094643 351.200592,99.320190 352.885345,101.146942 
	C354.733734,103.171349 356.340729,104.594543 357.947693,106.017731 
	C360.927277,109.112984 363.906860,112.208237 366.664673,115.767609 
	C364.078552,117.449249 359.995178,116.276611 360.036407,120.839157 
	C354.158051,115.051605 348.279694,109.264053 342.104614,102.907791 
	C341.141479,101.919418 340.475006,101.499763 339.808563,101.080109 
	C339.001251,100.500153 338.193939,99.920197 337.099243,98.808823 
	C336.137939,97.880707 335.464020,97.484009 334.790100,97.087311 
	C334.315674,96.786011 333.841248,96.484718 333.095581,95.644875 
	C331.754639,94.455330 330.684967,93.804321 329.615265,93.153320 
	C329.615265,93.153313 329.264221,93.047401 329.010010,92.634277 
	C328.050262,91.861732 327.344696,91.502319 326.639160,91.142906 
z"/>
<path fill="#8CC63F" opacity="1.000000" stroke="none" 
	d="
M73.227463,321.514587 
	C70.894142,323.129364 68.511101,324.385040 65.995972,325.992493 
	C62.453979,319.399750 59.044071,312.455261 55.651108,304.826660 
	C55.239758,303.420227 54.811459,302.697937 54.383163,301.975647 
	C54.142796,301.440277 53.902428,300.904938 53.690292,299.642853 
	C52.279152,294.934937 50.839775,290.953766 49.400398,286.972565 
	C48.965454,285.551392 48.530506,284.130249 48.577606,282.349426 
	C54.369488,281.141266 57.260773,283.193237 58.194389,288.693481 
	C58.629650,291.257751 60.434425,293.589508 61.618446,296.026672 
	C61.867794,296.553070 62.117146,297.079498 62.342022,298.237396 
	C62.746933,299.588013 63.176319,300.307159 63.605705,301.026276 
	C64.139633,302.234863 64.673553,303.443451 65.216850,305.302185 
	C65.630066,306.645508 66.033890,307.338684 66.437729,308.031830 
	C68.684395,312.406372 70.931068,316.780914 73.227463,321.514587 
z"/>
<path fill="#559D28" opacity="1.000000" stroke="none" 
	d="
M360.169403,121.154480 
	C359.995178,116.276611 364.078552,117.449249 366.796387,116.079346 
	C373.511932,124.662338 379.874115,133.397736 386.311066,142.490112 
	C383.672150,143.283691 380.283417,142.063156 378.792847,146.289185 
	C372.527527,138.290359 366.414948,129.880081 360.169403,121.154480 
z"/>
<path fill="#459122" opacity="1.000000" stroke="none" 
	d="
M335.315491,86.508530 
	C333.550385,86.874519 331.495056,86.591309 329.688293,87.134705 
	C328.319031,87.546516 327.266693,89.012009 326.053467,90.391068 
	C323.359955,89.187088 320.686249,87.600662 318.221252,85.654800 
	C319.809082,83.945915 321.188202,82.596451 322.567322,81.246994 
	C320.944794,80.483368 319.377411,79.537628 317.679352,79.023293 
	C316.632843,78.706299 315.386932,79.047424 314.230560,79.093063 
	C315.669312,74.950142 318.775177,75.527809 321.451233,77.102425 
	C326.166321,79.876793 330.587769,83.150200 335.315491,86.508530 
z"/>
<path fill="#6BB032" opacity="1.000000" stroke="none" 
	d="
M268.335876,415.649109 
	C268.636383,414.890717 269.318115,414.076996 270.502136,412.663757 
	C268.214172,411.124725 266.017517,409.647125 263.456543,408.085693 
	C265.719818,407.247498 268.307953,406.267334 270.985535,405.799072 
	C273.945770,405.281372 276.788025,406.497925 276.618073,409.658875 
	C276.519196,411.498810 274.228668,413.430298 272.548859,414.887939 
	C271.703735,415.621246 270.021027,415.389282 268.335876,415.649109 
z"/>
<path fill="#6BB032" opacity="1.000000" stroke="none" 
	d="
M51.132919,234.257614 
	C49.764507,236.143845 48.609009,238.247696 46.862591,239.026550 
	C45.934505,239.440445 43.313736,237.890701 42.680191,236.618317 
	C42.045807,235.344254 42.395466,232.938583 43.262669,231.685730 
	C45.378075,228.629593 48.870277,229.734818 51.132919,234.257614 
z"/>
<path fill="#6BB032" opacity="1.000000" stroke="none" 
	d="
M318.507568,388.736206 
	C319.023834,390.989227 319.745422,393.165405 319.301300,395.069702 
	C319.088867,395.980713 316.474640,397.120178 315.294312,396.815491 
	C313.848877,396.442383 312.140625,394.878906 311.651337,393.451263 
	C310.487915,390.056702 313.534180,387.914124 318.507568,388.736206 
z"/>
<path fill="#6BB032" opacity="1.000000" stroke="none" 
	d="
M401.580658,279.396942 
	C405.228058,281.039795 406.672119,283.732880 404.141327,286.505951 
	C403.060242,287.690552 399.812683,287.384491 397.736969,286.919373 
	C396.978516,286.749451 395.934204,283.602356 396.478394,282.788910 
	C397.499908,281.261902 399.583069,280.445129 401.580658,279.396942 
z"/>
<path fill="#77BC37" opacity="1.000000" stroke="none" 
	d="
M357.152893,365.196136 
	C356.465057,368.990936 353.930084,369.149109 351.546692,367.986084 
	C350.303314,367.379364 348.713348,364.809326 349.095764,364.085846 
	C349.965790,362.439697 351.957520,361.386444 353.493378,360.092224 
	C354.720673,361.693726 355.947968,363.295258 357.152893,365.196136 
z"/>
<path fill="#80BD3A" opacity="1.000000" stroke="none" 
	d="
M61.601768,295.655823 
	C60.434425,293.589508 58.629650,291.257751 58.194389,288.693481 
	C57.260773,283.193237 54.369488,281.141266 48.636696,281.979279 
	C49.370586,280.297150 50.506016,277.288330 51.689346,277.269348 
	C53.434872,277.241394 56.105419,278.960693 56.810528,280.608337 
	C58.826405,285.318970 60.049938,290.368652 61.601768,295.655823 
z"/>
<path fill="#77BC37" opacity="1.000000" stroke="none" 
	d="
M383.516052,331.487244 
	C380.317841,331.142242 377.126556,330.649109 378.094513,326.753387 
	C378.443054,325.350555 380.670929,323.892609 382.288147,323.513489 
	C383.338989,323.267151 385.963135,324.998535 385.916351,325.715668 
	C385.789948,327.654388 384.612762,329.524597 383.516052,331.487244 
z"/>
<path fill="#80BD3A" opacity="1.000000" stroke="none" 
	d="
M224.177887,58.926582 
	C224.180023,57.250572 224.182159,55.574562 224.202271,53.187500 
	C224.181625,52.286903 224.143021,52.097359 224.104401,51.907814 
	C225.422440,51.837738 226.997009,51.279022 228.001404,51.806347 
	C229.724915,52.711246 232.006104,54.110077 232.317123,55.651779 
	C232.561478,56.863026 230.266327,58.677811 228.936203,60.068523 
	C228.435989,60.591537 227.476349,60.675144 226.283142,60.585461 
	C225.286057,59.783428 224.731979,59.355007 224.177887,58.926582 
z"/>
<path fill="#80BD3A" opacity="1.000000" stroke="none" 
	d="
M273.739441,59.916737 
	C275.713318,60.778690 277.388397,61.639416 279.063507,62.500149 
	C278.315735,63.874138 277.529205,66.430046 276.827240,66.407028 
	C274.439941,66.328751 272.082458,65.340332 269.713623,64.699448 
	C269.679565,64.074677 269.645508,63.449898 269.611481,62.825123 
	C270.887848,61.855251 272.164246,60.885380 273.739441,59.916737 
z"/>
<path fill="#80C23B" opacity="1.000000" stroke="none" 
	d="
M67.232239,143.465454 
	C70.166122,143.375580 72.971687,143.647156 76.145279,144.154114 
	C75.602005,147.225876 74.148354,150.180130 70.813728,149.164276 
	C69.186195,148.668457 68.316605,145.684601 67.232239,143.465454 
z"/>
<path fill="#80C23B" opacity="1.000000" stroke="none" 
	d="
M314.091888,79.453903 
	C315.386932,79.047424 316.632843,78.706299 317.679352,79.023293 
	C319.377411,79.537628 320.944794,80.483368 322.567322,81.246994 
	C321.188202,82.596451 319.809082,83.945915 318.035889,85.386841 
	C316.412323,83.590454 315.182770,81.702599 314.091888,79.453903 
z"/>
<path fill="#80BD3A" opacity="1.000000" stroke="none" 
	d="
M396.933868,191.362350 
	C399.540497,190.692703 402.175323,190.364944 405.215912,190.048218 
	C404.450653,191.722595 403.473083,194.496246 402.055267,194.743286 
	C400.578827,195.000519 398.677551,192.819275 396.933868,191.362350 
z"/>
<path fill="#80BD3A" opacity="1.000000" stroke="none" 
	d="
M411.079742,236.866180 
	C410.080475,238.438370 409.081177,240.010544 408.081879,241.582718 
	C406.322754,240.328552 404.563629,239.074402 403.182190,237.275970 
	C406.066467,236.776535 408.573120,236.821365 411.079742,236.866180 
z"/>
<path fill="#5BA62B" opacity="1.000000" stroke="none" 
	d="
M289.626343,78.793304 
	C291.161102,78.281647 292.599487,77.804527 293.954376,77.978416 
	C294.356842,78.030060 295.053619,80.214821 294.671661,80.881004 
	C294.141815,81.805107 292.721069,82.218376 291.681763,82.850357 
	C290.953857,81.592529 290.225922,80.334709 289.626343,78.793304 
z"/>
<path fill="#80BD3A" opacity="1.000000" stroke="none" 
	d="
M57.505737,188.106567 
	C56.029770,189.605850 54.757374,191.830963 52.999210,192.324081 
	C51.992363,192.606476 50.195927,190.073547 49.121605,188.237488 
	C52.160736,187.813416 54.833233,187.959991 57.505737,188.106567 
z"/>
<path fill="#469322" opacity="1.000000" stroke="none" 
	d="
M57.599640,187.763214 
	C54.833233,187.959991 52.160736,187.813416 49.131165,187.831467 
	C50.052246,186.491501 51.496357,183.647903 52.571495,183.781189 
	C54.401066,184.007965 55.998543,186.107315 57.599640,187.763214 
z"/>
<path fill="#519D27" opacity="1.000000" stroke="none" 
	d="
M411.223846,236.570511 
	C408.573120,236.821365 406.066467,236.776535 403.202911,236.868713 
	C404.229126,235.531921 405.429230,233.228348 407.058228,232.869003 
	C408.189331,232.619507 409.910461,235.044647 411.223846,236.570511 
z"/>
<path fill="#3F881F" opacity="1.000000" stroke="none" 
	d="
M223.763153,51.676167 
	C224.143021,52.097359 224.181625,52.286903 224.219910,52.767109 
	C220.406937,52.884781 216.594315,52.711788 212.428864,52.351177 
	C215.858002,51.923882 219.639954,51.684200 223.763153,51.676167 
z"/>
<path fill="#3F881F" opacity="1.000000" stroke="none" 
	d="
M223.720337,58.944275 
	C224.731979,59.355007 225.286057,59.783428 225.928223,60.461044 
	C222.313065,60.695347 218.609818,60.680458 214.453537,60.578400 
	C217.087921,59.981472 220.175369,59.471718 223.720337,58.944275 
z"/>
<path fill="#99CC44" opacity="1.000000" stroke="none" 
	d="
M243.618195,410.313965 
	C240.624359,410.828125 237.190964,411.238007 233.416748,411.452332 
	C236.443512,410.907806 239.811050,410.558746 243.618195,410.313965 
z"/>
<path fill="#80BD3A" opacity="1.000000" stroke="none" 
	d="
M49.399475,287.352234 
	C50.839775,290.953766 52.279152,294.934937 53.695862,299.346008 
	C52.248322,295.761261 50.823437,291.746582 49.399475,287.352234 
z"/>
<path fill="#99CC44" opacity="1.000000" stroke="none" 
	d="
M218.568512,411.120972 
	C215.738342,411.195435 212.541550,411.116455 209.141129,410.741760 
	C212.025620,410.619904 215.113754,410.793732 218.568512,411.120972 
z"/>
<path fill="#3F881F" opacity="1.000000" stroke="none" 
	d="
M172.639465,59.659443 
	C169.403625,61.048244 165.809326,62.412525 161.794434,63.790623 
	C165.009567,62.414597 168.645279,61.024757 172.639465,59.659443 
z"/>
<path fill="#6BB032" opacity="1.000000" stroke="none" 
	d="
M219.652573,237.376099 
	C216.901596,238.398865 213.780045,239.454391 210.359146,240.328918 
	C213.133865,239.234909 216.207932,238.321899 219.652573,237.376099 
z"/>
<path fill="#469322" opacity="1.000000" stroke="none" 
	d="
M101.691864,100.122894 
	C99.853622,102.295860 97.695808,104.563652 95.190948,106.883408 
	C97.020035,104.696152 99.196167,102.456940 101.691864,100.122894 
z"/>
<path fill="#459122" opacity="1.000000" stroke="none" 
	d="
M357.845337,105.708160 
	C356.340729,104.594543 354.733734,103.171349 353.045471,101.424812 
	C354.557129,102.533829 356.150055,103.966202 357.845337,105.708160 
z"/>
<path fill="#99CC44" opacity="1.000000" stroke="none" 
	d="
M228.634079,411.292542 
	C227.132278,411.596710 225.207077,411.773834 223.113068,411.672150 
	C224.699722,411.317383 226.455200,411.241425 228.634079,411.292542 
z"/>
<path fill="#3F881F" opacity="1.000000" stroke="none" 
	d="
M206.623779,52.403961 
	C205.231735,52.844456 203.459885,53.194244 201.392181,53.379288 
	C202.812195,52.914116 204.528076,52.613686 206.623779,52.403961 
z"/>
<path fill="#6BB032" opacity="1.000000" stroke="none" 
	d="
M205.629700,239.982056 
	C204.388580,240.063446 202.834503,239.965958 201.131302,239.589447 
	C202.427032,239.474655 203.871902,239.638901 205.629700,239.982056 
z"/>
<path fill="#3F881F" opacity="1.000000" stroke="none" 
	d="
M205.356995,61.565132 
	C206.468124,61.163368 207.938293,60.850197 209.679489,60.712971 
	C208.539017,61.143852 207.127518,61.398788 205.356995,61.565132 
z"/>
<path fill="#3F881F" opacity="1.000000" stroke="none" 
	d="
M170.326965,69.606827 
	C171.477005,68.944519 172.962036,68.281334 174.700500,67.755676 
	C173.523254,68.464119 172.092590,69.035034 170.326965,69.606827 
z"/>
<path fill="#3F881F" opacity="1.000000" stroke="none" 
	d="
M177.328827,67.335266 
	C178.488235,66.734985 179.973862,66.175957 181.706390,65.753998 
	C180.520538,66.386208 179.087784,66.881371 177.328827,67.335266 
z"/>
<path fill="#3F881F" opacity="1.000000" stroke="none" 
	d="
M179.674042,57.563408 
	C178.517822,58.194397 177.031204,58.788666 175.295715,59.245750 
	C176.479111,58.581276 177.911392,58.053982 179.674042,57.563408 
z"/>
<path fill="#3F881F" opacity="1.000000" stroke="none" 
	d="
M198.331757,62.599052 
	C199.144409,62.196613 200.294800,61.866405 201.693634,61.702034 
	C200.851227,62.135674 199.760345,62.403477 198.331757,62.599052 
z"/>
<path fill="#3F881F" opacity="1.000000" stroke="none" 
	d="
M192.331512,63.589611 
	C193.136978,63.190884 194.280640,62.849354 195.674652,62.667408 
	C194.839905,63.100266 193.754822,63.373535 192.331512,63.589611 
z"/>
<path fill="#8CC63F" opacity="1.000000" stroke="none" 
	d="
M66.216309,327.314331 
	C67.058884,328.226807 67.941460,329.468750 68.838272,331.068878 
	C67.987106,330.165985 67.121696,328.904846 66.216309,327.314331 
z"/>
<path fill="#6BB032" opacity="1.000000" stroke="none" 
	d="
M196.388275,237.514450 
	C195.137909,237.094177 193.679626,236.399109 192.100952,235.370911 
	C193.380478,235.771744 194.780426,236.505692 196.388275,237.514450 
z"/>
<path fill="#3F881F" opacity="1.000000" stroke="none" 
	d="
M198.670441,53.427750 
	C197.869858,53.839062 196.732056,54.180786 195.344604,54.368587 
	C196.174362,53.929161 197.253815,53.643658 198.670441,53.427750 
z"/>
<path fill="#459122" opacity="1.000000" stroke="none" 
	d="
M329.771179,93.432327 
	C330.684967,93.804321 331.754639,94.455330 332.922546,95.419228 
	C331.989532,95.058525 330.958344,94.384933 329.771179,93.432327 
z"/>
<path fill="#459122" opacity="1.000000" stroke="none" 
	d="
M348.168396,96.582596 
	C347.255890,96.177231 346.197876,95.485352 345.043427,94.472008 
	C345.972290,94.865723 346.997559,95.580902 348.168396,96.582596 
z"/>
<path fill="#469322" opacity="1.000000" stroke="none" 
	d="
M107.303238,106.897888 
	C107.856689,106.055046 108.715965,105.119370 109.919189,104.146088 
	C109.378441,105.007332 108.493744,105.906189 107.303238,106.897888 
z"/>
<path fill="#469322" opacity="1.000000" stroke="none" 
	d="
M93.638298,107.962700 
	C93.167572,108.846588 92.398605,109.845337 91.298920,110.914909 
	C91.758820,110.016342 92.549438,109.046951 93.638298,107.962700 
z"/>
<path fill="#3F881F" opacity="1.000000" stroke="none" 
	d="
M192.702393,54.428040 
	C192.174484,54.813526 191.337234,55.134438 190.284302,55.306393 
	C190.843414,54.892776 191.618225,54.628120 192.702393,54.428040 
z"/>
<path fill="#99CC44" opacity="1.000000" stroke="none" 
	d="
M248.762604,409.988892 
	C248.141876,410.302307 247.319733,410.451996 246.286591,410.430603 
	C246.904144,410.114777 247.732666,409.969971 248.762604,409.988892 
z"/>
<path fill="#8CC63F" opacity="1.000000" stroke="none" 
	d="
M78.832375,330.722839 
	C78.331047,330.397003 77.779190,329.752808 77.200943,328.770447 
	C77.710320,329.089661 78.246086,329.747070 78.832375,330.722839 
z"/>
<path fill="#8CC63F" opacity="1.000000" stroke="none" 
	d="
M85.750076,340.766815 
	C85.271431,340.488678 84.730392,339.916687 84.145950,339.037018 
	C84.630928,339.310547 85.159302,339.891754 85.750076,340.766815 
z"/>
<path fill="#3F881F" opacity="1.000000" stroke="none" 
	d="
M157.298462,74.513824 
	C157.655991,74.087013 158.317383,73.653030 159.300354,73.213089 
	C158.948730,73.640305 158.275528,74.073479 157.298462,74.513824 
z"/>
<path fill="#8CC63F" opacity="1.000000" stroke="none" 
	d="
M75.705269,325.707458 
	C75.228073,325.378113 74.717117,324.737701 74.187927,323.769958 
	C74.670288,324.093872 75.170898,324.745148 75.705269,325.707458 
z"/>
<path fill="#3F881F" opacity="1.000000" stroke="none" 
	d="
M188.251526,64.514725 
	C188.534225,64.206451 189.082870,63.943230 189.803162,63.809563 
	C189.489014,64.146004 189.003265,64.352898 188.251526,64.514725 
z"/>
<path fill="#3F881F" opacity="1.000000" stroke="none" 
	d="
M158.700119,64.447350 
	C158.342102,64.882721 157.677704,65.327713 156.687958,65.777519 
	C157.039658,65.340553 157.716690,64.898758 158.700119,64.447350 
z"/>
<path fill="#80BD3A" opacity="1.000000" stroke="none" 
	d="
M66.430626,307.725647 
	C66.033890,307.338684 65.630066,306.645508 65.245377,305.631348 
	C65.650864,306.013367 66.037193,306.716431 66.430626,307.725647 
z"/>
<path fill="#80BD3A" opacity="1.000000" stroke="none" 
	d="
M54.395313,302.291870 
	C54.811459,302.697937 55.239758,303.420227 55.620850,304.482147 
	C55.184917,304.083893 54.796188,303.345978 54.395313,302.291870 
z"/>
<path fill="#3F881F" opacity="1.000000" stroke="none" 
	d="
M187.751495,55.558029 
	C187.478424,55.868687 186.942734,56.128742 186.236115,56.271736 
	C186.539749,55.938923 187.014313,55.723179 187.751495,55.558029 
z"/>
<path fill="#559D28" opacity="1.000000" stroke="none" 
	d="
M379.348450,148.288391 
	C379.806885,148.612289 380.300568,149.237228 380.812622,150.183334 
	C380.348541,149.866150 379.866150,149.227783 379.348450,148.288391 
z"/>
<path fill="#459122" opacity="1.000000" stroke="none" 
	d="
M339.938721,101.352074 
	C340.475006,101.499763 341.141479,101.919418 341.918335,102.628113 
	C341.375427,102.486122 340.722168,102.055084 339.938721,101.352074 
z"/>
<path fill="#3F881F" opacity="1.000000" stroke="none" 
	d="
M183.751678,56.558060 
	C183.477158,56.867020 182.940384,57.125412 182.233002,57.265743 
	C182.538071,56.934284 183.013748,56.720886 183.751678,56.558060 
z"/>
<path fill="#519D27" opacity="1.000000" stroke="none" 
	d="
M100.753113,197.190750 
	C100.912025,197.587524 100.905365,198.204987 100.697121,198.921326 
	C100.526207,198.483948 100.556885,197.947693 100.753113,197.190750 
z"/>
<path fill="#469322" opacity="1.000000" stroke="none" 
	d="
M181.224335,198.803207 
	C180.940735,198.493271 180.757553,197.931305 180.704620,197.215485 
	C180.998169,197.558151 181.161469,198.054657 181.224335,198.803207 
z"/>
<path fill="#459122" opacity="1.000000" stroke="none" 
	d="
M334.927856,97.353539 
	C335.464020,97.484009 336.137939,97.880707 336.932373,98.558960 
	C336.390472,98.433594 335.728027,98.026680 334.927856,97.353539 
z"/>
<path fill="#459122" opacity="1.000000" stroke="none" 
	d="
M353.938293,210.729614 
	C353.517609,210.795883 353.324402,210.602829 353.072266,210.184509 
	C353.240387,209.709717 353.515656,209.411880 353.965973,209.012817 
	C354.133209,209.447235 354.125366,209.982895 353.938293,210.729614 
z"/>
<path fill="#459122" opacity="1.000000" stroke="none" 
	d="
M352.359924,215.030670 
	C352.342346,214.550049 352.502014,213.855896 352.904785,213.021408 
	C352.944244,213.526428 352.740692,214.171783 352.359924,215.030670 
z"/>
<path fill="#3F881F" opacity="1.000000" stroke="none" 
	d="
M184.250061,65.474792 
	C184.530838,65.170929 185.075272,64.914185 185.790512,64.782364 
	C185.478790,65.112160 184.996262,65.317039 184.250061,65.474792 
z"/>
<path fill="#459122" opacity="1.000000" stroke="none" 
	d="
M326.794800,91.402481 
	C327.344696,91.502319 328.050262,91.861732 328.883698,92.501419 
	C328.324554,92.408485 327.637512,92.035271 326.794800,91.402481 
z"/>
<path fill="#459122" opacity="1.000000" stroke="none" 
	d="
M342.017731,91.674515 
	C341.491180,91.543800 340.832825,91.149162 340.053741,90.479935 
	C340.583984,90.607101 341.234955,91.008858 342.017731,91.674515 
z"/>
<path fill="#459122" opacity="1.000000" stroke="none" 
	d="
M338.111877,88.629875 
	C337.571960,88.496078 336.894135,88.094421 336.104004,87.405212 
	C336.652466,87.532440 337.313263,87.947227 338.111877,88.629875 
z"/>
<path fill="#3F881F" opacity="1.000000" stroke="none" 
	d="
M162.298386,72.506248 
	C162.658813,72.081795 163.323059,71.651352 164.309174,71.217224 
	C163.954742,71.642441 163.278473,72.071350 162.298386,72.506248 
z"/>
<path fill="#3F881F" opacity="1.000000" stroke="none" 
	d="
M153.704575,66.456482 
	C153.358032,66.894173 152.708923,67.342079 151.739716,67.802887 
	C152.080414,67.366089 152.741211,66.916389 153.704575,66.456482 
z"/>
<path fill="#80BD3A" opacity="1.000000" stroke="none" 
	d="
M63.595615,300.710754 
	C63.176319,300.307159 62.746933,299.588013 62.361664,298.530304 
	C62.799030,298.926239 63.192280,299.660736 63.595615,300.710754 
z"/>
<path fill="#559D28" opacity="1.000000" stroke="none" 
	d="
M394.508789,159.599518 
	C394.395020,159.597534 394.243286,159.385727 394.104034,158.921921 
	C394.222687,158.930771 394.340790,159.170700 394.508789,159.599518 
z"/>
</svg>